<svg xmlns="http://www.w3.org/2000/svg" width="69.272" height="63.484"><defs><clipPath id="a"><path data-name="Rectangle 22511" fill="none" d="M0 0h69.272v63.484H0z"/></clipPath></defs><g data-name="Group 42205" clip-path="url(#a)"><path data-name="Path 100921" d="m36.316 34.503-2.228-12.417a17.618 17.618 0 0 0-4.376-8.924 9.341 9.341 0 0 0-3.482-2.553 6.418 6.418 0 1 0-11.131.362l-2.439 1.75a18.13 18.13 0 0 0-5.673 6.688l-4.98 10.085a3.9 3.9 0 0 0-.586 2.8c.012.069.03.136.045.2A3.293 3.293 0 0 0 0 35.239v1.57a.831.831 0 0 0 1.661 0v-1.57a1.641 1.641 0 0 1 .549-1.23 3.556 3.556 0 0 0 2.752 1.3v27.344a.831.831 0 0 0 1.661 0V35.239a.823.823 0 0 0-.056-.294 3.926 3.926 0 0 0 1.621-1.381.887.887 0 0 0 .048-.081l5.006-9.7v35.563a3.942 3.942 0 0 0 3.7 4.138h.748a3.561 3.561 0 0 0 2.87-1.53 3.562 3.562 0 0 0 2.87 1.53h.747a3.942 3.942 0 0 0 3.7-4.138V29.435l1.085 5.874a3.8 3.8 0 0 0 3.7 3.456c.113 0 .227 0 .341-.016a3.781 3.781 0 0 0 3.318-4.182c0-.023-.005-.045-.009-.068M20.558 2.862a4.747 4.747 0 0 1 3.747 7.672.828.828 0 0 0-.19.228 4.752 4.752 0 1 1-3.557-7.9M32.85 37.099a2.117 2.117 0 0 1-2.238-1.982c0-.024-.005-.048-.01-.072l-2.74-14.836v-.007a.841.841 0 0 0-.027-.092c-.007-.023-.012-.047-.021-.068s-.02-.038-.03-.058a.769.769 0 0 0-.047-.087l-.014-.017a.823.823 0 0 0-.211-.208.847.847 0 0 0-.136-.074l-.023-.007a.829.829 0 0 0-.131-.041h-.039a.777.777 0 0 0-.125-.012h-.007c-.024 0-.047 0-.071.007s-.053 0-.08.007h-.007a.9.9 0 0 0-.1.028c-.021.007-.044.012-.064.02a.825.825 0 0 0-.074.039c-.023.012-.048.023-.07.038s-.037.03-.055.045a.818.818 0 0 0-.068.056c-.019.019-.034.041-.052.061s-.035.039-.049.06-.029.053-.044.079-.024.039-.033.061-.017.05-.025.076-.019.052-.025.079 0 .044-.008.065a.9.9 0 0 0-.01.1v38.99a2.293 2.293 0 0 1-2.039 2.477h-.747a2.293 2.293 0 0 1-2.039-2.477V41.402a.831.831 0 0 0-1.661 0v17.944a2.293 2.293 0 0 1-2.039 2.477h-.748a2.293 2.293 0 0 1-2.043-2.477V20.319c0-.015 0-.059-.009-.089a.74.74 0 0 0-.017-.077.679.679 0 0 0-.024-.076.7.7 0 0 0-.032-.075.7.7 0 0 0-.134-.197c-.019-.02-.037-.039-.057-.057s-.039-.034-.061-.049a.89.89 0 0 0-.075-.049c-.013-.007-.024-.017-.037-.024s-.018-.007-.027-.011a.8.8 0 0 0-.083-.033.513.513 0 0 0-.151-.037.836.836 0 0 0-.091-.009h-.073c-.015 0-.059 0-.089.009s-.052.01-.078.017-.05.014-.075.023a.894.894 0 0 0-.144.07.98.98 0 0 0-.128.096 1.043 1.043 0 0 0-.057.058.762.762 0 0 0-.049.06.892.892 0 0 0-.049.075c-.007.013-.017.024-.024.037L6.782 32.676a2.117 2.117 0 0 1-2.886.646 1.961 1.961 0 0 1-.838-1.313 2.25 2.25 0 0 1 .361-1.637.858.858 0 0 0 .054-.095l5-10.133a16.469 16.469 0 0 1 5.153-6.072l2.519-1.807a6.387 6.387 0 0 0 9.052-.228 6.8 6.8 0 0 1 3.3 2.258 15.96 15.96 0 0 1 3.958 8.086l2.222 12.38a2.117 2.117 0 0 1-1.827 2.338"/><path data-name="Path 100922" d="M67.377 30.78a.816.816 0 0 0-.394-.085 3.41 3.41 0 0 0-.424-1.187l-6.193-10.166a14.043 14.043 0 0 0-7.085-6.078c-.012-.022-.028-.042-.043-.062a6.35 6.35 0 0 0-1.752-8.984 3.54 3.54 0 1 0-6.948.009 6.384 6.384 0 0 0-2.761 4.074v.029a6.4 6.4 0 0 0-.121 1.228 6.324 6.324 0 0 0 .989 3.394 9.047 9.047 0 0 0-5.011 2.868 13.708 13.708 0 0 0-2.77 5.274l-.154.638a.829.829 0 0 0 .611 1 .82.82 0 0 0 .2.024.83.83 0 0 0 .806-.635l.155-.637a12.188 12.188 0 0 1 2.371-4.533 7.535 7.535 0 0 1 3.792-2.3c.177 1.911 1.384 4.535 5.22 5.281h.005a.806.806 0 0 0 .152.015.807.807 0 0 0 .152-.015h.003c3.552-.69 4.849-2.992 5.163-4.846a12.414 12.414 0 0 1 5.605 5.1l6.194 10.169a1.736 1.736 0 0 1-.619 2.372 1.732 1.732 0 0 1-2.374-.622l-6.723-11.361a.831.831 0 0 0-1.538.536l3.37 24.6H38.794l3.37-24.6a.831.831 0 0 0-1.626-.327l-4 14.95a.831.831 0 0 0 1.6.429l.576-2.153-1.7 12.423a.83.83 0 0 0 .823.943h3.208v11.764a3.777 3.777 0 0 0 3.548 3.963h.708a3.407 3.407 0 0 0 2.718-1.418 3.407 3.407 0 0 0 2.718 1.418h.708a3.777 3.777 0 0 0 3.548-3.963V47.55h3.208a.831.831 0 0 0 .823-.943l-2.937-21.469 4.624 7.815a3.394 3.394 0 0 0 1.686 1.448v28.253a.831.831 0 1 0 1.661 0V34.607a3.46 3.46 0 0 0 .557-.118 3.387 3.387 0 0 0 2.217-2.107 1.766 1.766 0 0 1 .778 1.468v1.651a.831.831 0 1 0 1.661 0v-1.65a3.422 3.422 0 0 0-1.891-3.071M43.313 9.558c0-.114.009-.225.017-.337a6.433 6.433 0 0 0 4.32-1.937 4.7 4.7 0 0 0 .485-.652 6.416 6.416 0 0 0 4.582 2.6c.007.108.017.216.017.326a4.711 4.711 0 0 1-9.421 0m3.764-4.615a3.123 3.123 0 0 1-.69 1.26 4.445 4.445 0 0 1-2.588 1.279 4.723 4.723 0 0 1 3.278-2.539m5.151 2.508a4.247 4.247 0 0 1-3.087-2.463 4.724 4.724 0 0 1 3.087 2.463m-4.213-5.79a1.878 1.878 0 0 1 1.872 1.8 6.365 6.365 0 0 0-3.745 0 1.878 1.878 0 0 1 1.873-1.8m0 16.612c-2.821-.61-3.537-2.4-3.7-3.541a6.33 6.33 0 0 0 7.392.013c-.164 1.142-.884 2.921-3.7 3.528m-2.71 43.337h-.708a2.128 2.128 0 0 1-1.887-2.3V47.55h4.481v11.759a2.128 2.128 0 0 1-1.887 2.3m8.03-2.3a2.128 2.128 0 0 1-1.887 2.3h-.708a2.128 2.128 0 0 1-1.887-2.3V47.55h4.481Z"/></g></svg>