<svg xmlns="http://www.w3.org/2000/svg" width="67.427" height="64.652"><defs><clipPath id="a"><path data-name="Rectangle 22515" fill="none" d="M0 0h67.427v64.652H0z"/></clipPath></defs><g data-name="Group 42219" clip-path="url(#a)"><path data-name="Path 100928" d="m39.803 35.649-7.907-2.726-1.825-3.471m-7.072-18.317-1.184-9.359 1.237-.917h4.746l1.236.917-1.184 9.359m-6.275-8.776c-4.816 2.246-6.292 4.937-6.805 10.946l-1.546 1.312a21.642 21.642 0 0 0-.081 2.535.858.858 0 0 0 .124.385h24.314a.844.844 0 0 0 .123-.385 21.275 21.275 0 0 0-.081-2.535l-1.544-1.312c-.492-5.747-1.759-8.889-6.86-10.657m-12.77 15.05-.815.607a15.144 15.144 0 0 0 .949 5.238l.846.461.18.649a10.673 10.673 0 0 0 5.475 6.637 17.09 17.09 0 0 0 4.681 0 10.673 10.673 0 0 0 5.475-6.637l.18-.649.846-.461a15.144 15.144 0 0 0 .949-5.238l-.794-.593m-2.525 15.211-6.51 4.829-6.5-4.829M.859 63.107l.744-20.153c.048-2.05 2.114-4.944 4-5.515l13.28-4.517 1.825-3.471M9.273 49.159l.086 13.948m31.438-6.365h5m-5-2.632h5m-5-2.632h5m5.3-3.722-3.482-2.474-.038.017v3.3s-6.348-.034-6.594.07-.21 6.673-.246 9.378c-.017 1.386 3.013 1.514 5.974 1.521.863 0 1.721-.018 2.495 0 3.489.101 2.486-11.101 1.889-11.809Zm-9.185.65v-3.8l-2.123-2.093v-3.984l1.2-2.581h1.97v4h3.4v-4h1.96l1.193 2.584v3.987l-2.132 2.052v3.755m0 11.187v4.276h-5.47v-4.607m-4.637-27.107a3.653 3.653 0 0 1 1.716-1.423l3.244-1.119 4.942-1.7 1.14-2.169m4.419-11.445.74-5.848-.772-.573h-2.967l-.772.573.74 5.848m3.921-5.482c3.013 1.4 3.932 3.083 4.252 6.838l.966.82a13.485 13.485 0 0 1 .05 1.584.532.532 0 0 1-.077.24H43.621a.539.539 0 0 1-.077-.24 13.366 13.366 0 0 1 .052-1.584l.965-.82c.308-3.592 1.1-5.555 4.286-6.659m7.98 9.4.51.38a9.475 9.475 0 0 1-.594 3.272l-.528.288-.112.406a6.67 6.67 0 0 1-3.421 4.147 10.694 10.694 0 0 1-2.925 0 6.667 6.667 0 0 1-3.423-4.15l-.112-.406-.528-.288a9.475 9.475 0 0 1-.593-3.272l.5-.37m1.577 9.5 4.067 3.017 4.062-3.017m11.262 18.868-.466-12.592a4.376 4.376 0 0 0-2.5-3.446l-8.3-2.822-1.144-2.172m7.148 12.316-.048 8.716" fill="none" stroke="#000" stroke-miterlimit="2.613" stroke-width="2"/></g></svg>