


<svg xmlns="http://www.w3.org/2000/svg" width="57.465" height="64.216" viewBox="0 0 57.465 64.216">
  <g id="Group_45208" data-name="Group 45208" transform="translate(-3.814)">
    <g id="Group_45210" data-name="Group 45210" transform="translate(3.814)">
      <path id="Path_102509" data-name="Path 102509" d="M22.2,64.215c-.883-.151-1.777-.252-2.645-.46-7.489-1.793-12.395-6.4-14.827-13.675a1.258,1.258,0,1,1,2.374-.76,16.453,16.453,0,0,0,2.842,5.539c4.229,5.221,9.677,7.557,16.369,6.6A17.278,17.278,0,0,0,28.76,27.846c-.476-.148-.966-.252-1.5-.388v3.609a13.225,13.225,0,0,1,4.787,2.355c4.223,3.4,6.087,7.8,5.24,13.168A13.613,13.613,0,0,1,26.544,57.9a13.79,13.79,0,0,1-8.322-26.144.667.667,0,0,0,.478-.738c-.028-1.038-.01-2.078-.01-3.173A17.441,17.441,0,0,0,7.116,39.484c-.036.12-.073.24-.118.356a1.278,1.278,0,0,1-1.528.868,1.231,1.231,0,0,1-.851-1.582,18.376,18.376,0,0,1,2.821-6.039,19.369,19.369,0,0,1,10.617-7.65c.633-.185.7-.54.756-1.072a19.1,19.1,0,0,1,2.932-8.692,8.26,8.26,0,0,1,3.24-2.8c-.436-.524-.888-.989-1.252-1.516A7.255,7.255,0,0,1,28.5.115,2.315,2.315,0,0,0,28.852,0h1.756c.278.074.557.145.836.22a6.968,6.968,0,0,1,5.4,5.651,6.993,6.993,0,0,1-3,7.386l-.3.226a29.517,29.517,0,0,1,1.995,2.244,8.068,8.068,0,0,1,1.477,4.893q-.005,4.263,0,8.526a1.975,1.975,0,0,0,1.7,1.717c1.608.027,3.228-.048,4.821.116a8.678,8.678,0,0,1,7.35,5.049c1.446,3.069,2.558,6.3,3.812,9.457.407,1.028.785,2.068,1.217,3.085a.928.928,0,0,0,.549.481c3.283.8,5.179,3.579,4.876,7.177a1.254,1.254,0,0,1-1.22,1.2c-.208.02-.418.01-.627.01q-10.1,0-20.193-.009a1.4,1.4,0,0,0-1.142.473,19.418,19.418,0,0,1-9.92,5.77c-1.109.268-2.26.364-3.391.54ZM18.691,34.361A11.2,11.2,0,0,0,12.8,47.3a11.284,11.284,0,0,0,22.19-2.776A11.032,11.032,0,0,0,27.22,33.756c0,.885.013,1.759,0,2.632a4.265,4.265,0,1,1-8.526-.023c-.01-.647,0-1.3,0-2m8.578-9.441a20.1,20.1,0,0,1,7.152,2.806c0-2.712.132-5.363-.037-7.995a5.623,5.623,0,0,0-4.527-5.045,5.812,5.812,0,0,0-6.28,2.756,15.8,15.8,0,0,0-2.236,6.973c-.149,2.142-.115,4.3-.138,6.448-.02,1.8-.008,3.593,0,5.389a1.772,1.772,0,1,0,3.511-.028c0-.146,0-.292,0-.438q0-5.484,0-10.968a3.193,3.193,0,0,1,.064-.744,1.22,1.22,0,0,1,2.372-.012,7.512,7.512,0,0,1,.118.857M58.8,54.935a3.573,3.573,0,0,0-3.359-3.479,1.682,1.682,0,0,1-1.609-1.226c-1.533-3.99-3.111-7.963-4.636-11.956-1.564-4.094-4.888-5.3-8.93-4.815.1.191.189.375.3.547A18.147,18.147,0,0,1,42.926,39.7c.121.545.34.784.917.7a1.709,1.709,0,0,1,1.965,1.241c1.9,4.268,3.853,8.512,5.77,12.772a.767.767,0,0,0,.832.541c1.65-.029,3.3-.012,4.951-.012H58.8M34.493,7.267a4.763,4.763,0,0,0-9.525-.018,4.763,4.763,0,1,0,9.525.018M49.069,54.913c-1.837-4.041-3.636-8-5.435-11.955a21.342,21.342,0,0,1-3.126,11.955Z" transform="translate(-3.897)"/>
      <path id="Path_102510" data-name="Path 102510" d="M5.076,51.16a1.3,1.3,0,0,1-1.262-1.228A1.245,1.245,0,0,1,6.3,49.895,1.3,1.3,0,0,1,5.076,51.16" transform="translate(-3.814 -5.409)"/>
      <path id="Path_102516" data-name="Path 102516" d="M35.063,50.7A8.28,8.28,0,0,1,32.2,56.215a1.278,1.278,0,0,1-1.8.043,1.226,1.226,0,0,1,.084-1.836,6.354,6.354,0,0,0,2.12-4.515,1.274,1.274,0,0,1,1.328-1.354c.794.055,1.188.632,1.136,2.144" transform="translate(-6.726 -5.395)"/>
      <path id="Path_102517" data-name="Path 102517" d="M25.953,56.785A1.255,1.255,0,0,1,27.2,58.008a1.235,1.235,0,0,1-1.277,1.246A1.252,1.252,0,0,1,24.7,58.01a1.269,1.269,0,0,1,1.252-1.225" transform="translate(-6.135 -6.31)"/>
    </g>
  </g>
</svg>