<svg xmlns="http://www.w3.org/2000/svg" width="72.289" height="62.18"><g data-name="Group 42260"><path data-name="Path 100923" d="M15.142 11.9a5.951 5.951 0 1 0-5.951-5.951 5.958 5.958 0 0 0 5.951 5.951m0-9.989a4.038 4.038 0 1 1-4.038 4.038 4.043 4.043 0 0 1 4.038-4.038" fill="#3c3c3c"/><path data-name="Path 100924" d="M72.289 37.409c0-8.159-7.591-14.8-16.922-14.8a.956.956 0 0 0-.956.956v12.89h-15.58l-6.285-4.246a.956.956 0 0 0-.521-.164l-2.009-.03-3.162-13.017a3.374 3.374 0 0 0-.057-.207 9.886 9.886 0 0 0-9.52-6.613h-4.27a9.885 9.885 0 0 0-9.519 6.612 3.058 3.058 0 0 0-.058.208L.093 32.732A3.272 3.272 0 0 0 2.5 36.679a3.306 3.306 0 0 0 .773.093 3.257 3.257 0 0 0 3.172-2.491L8.9 24.445l.271 1.764-4.13 15.419a.957.957 0 0 0 .923 1.2h2.685V58.4a3.611 3.611 0 0 0 3.405 3.78h.638a3.243 3.243 0 0 0 2.45-1.156 3.243 3.243 0 0 0 2.449 1.156h.638a3.611 3.611 0 0 0 3.405-3.78V42.832h2.684a.957.957 0 0 0 .924-1.2l-4.13-15.423.273-1.765 2.455 9.83a3.258 3.258 0 0 0 3.173 2.5 3.268 3.268 0 0 0 3.239-2.843l1.459.022 3.7 2.5h-.841a.956.956 0 0 0-.956.956c0 9.311 8.674 16.887 19.335 16.887s19.34-7.573 19.34-16.887m-59.6 22.856h-.638a1.714 1.714 0 0 1-1.493-1.867V42.832h3.624V58.4a1.714 1.714 0 0 1-1.493 1.867m7.03-1.867a1.714 1.714 0 0 1-1.493 1.867h-.638A1.714 1.714 0 0 1 16.1 58.4V42.832h3.624Zm7.614-23.58a1.36 1.36 0 0 1-1.639-1l-3.6-14.434a.956.956 0 0 0-1.873.086l-1.028 6.648a.945.945 0 0 0 .022.394l3.86 14.408H7.211l3.86-14.413a.953.953 0 0 0 .022-.394l-1.029-6.646a.956.956 0 0 0-1.873-.086L4.585 33.824a1.355 1.355 0 1 1-2.633-.64l3.336-13.736a.995.995 0 0 1 .024-.085 7.959 7.959 0 0 1 7.695-5.273h4.27a7.96 7.96 0 0 1 7.694 5.271l.024.087 3.337 13.735a1.357 1.357 0 0 1-1 1.637m28.991-10.266c7.463.405 13.459 5.513 14.008 11.9H56.323Zm-3.37 27.832c-9.233 0-16.812-6.205-17.387-14.018h34.776c-.575 7.813-8.155 14.018-17.388 14.018"/><path data-name="Path 100925" d="M40.519 52.386c-3.034 0-5.5 2.2-5.5 4.9s2.468 4.9 5.5 4.9 5.5-2.2 5.5-4.9-2.468-4.9-5.5-4.9m0 7.881c-1.98 0-3.59-1.339-3.59-2.984s1.61-2.984 3.59-2.984 3.59 1.338 3.59 2.984-1.61 2.984-3.59 2.984"/><path data-name="Path 100926" d="M65.387 52.386c-3.034 0-5.5 2.2-5.5 4.9s2.468 4.9 5.5 4.9 5.5-2.2 5.5-4.9-2.468-4.9-5.5-4.9m0 7.881c-1.98 0-3.59-1.339-3.59-2.984s1.61-2.984 3.59-2.984 3.59 1.338 3.59 2.984-1.61 2.984-3.59 2.984"/><path data-name="Rectangle 22512" fill="none" d="M0 0h72.289v62.18H0z"/></g></svg>