<svg xmlns="http://www.w3.org/2000/svg" width="53.989" height="64.371"><defs><clipPath id="a"><path data-name="Rectangle 22517" fill="none" d="M0 0h53.989v64.371H0z"/></clipPath></defs><g data-name="Group 42222" clip-path="url(#a)"><path data-name="Path 100933" d="M25.956 21.693v-.412a.516.516 0 0 0-.516-.516h-9.35a.516.516 0 0 0-.516.516v.522a5.2 5.2 0 0 0 5.586 5.176 5.263 5.263 0 0 0 4.8-5.287m-8.128 1.149h5.873a3.115 3.115 0 0 1-5.873 0"/><path data-name="Path 100934" d="M49.016 7.268a4.959 4.959 0 0 0-4.906 4.156l-.371 2.223a3.109 3.109 0 0 0-2.209 2.965v2.433a5.158 5.158 0 0 0 1.52 3.671l.556.555v5.554a4.4 4.4 0 0 1-4.4 4.4h-12.4l-.684-3.418a11.482 11.482 0 0 0 5.269-5.926h.793a4.153 4.153 0 1 0 0-8.306v-2.6A6.747 6.747 0 0 0 29.59 0H17.323A12.132 12.132 0 0 0 5.554 15.075l.528 2.113a4.111 4.111 0 0 0-.891 2.538 4.157 4.157 0 0 0 4.153 4.154h.793a11.478 11.478 0 0 0 5.269 5.926l-.715 3.574-6.383 1.276A10.333 10.333 0 0 0 0 44.792v13.35a6.236 6.236 0 0 0 6.229 6.229H35.3a2.078 2.078 0 0 0 2.076-2.076V43.606h2.269a14.345 14.345 0 0 0 14.344-14.343V12.241a4.978 4.978 0 0 0-4.973-4.973Zm-5.409 9.344a1.038 1.038 0 0 1 1.038-1.038h2.041a1.062 1.062 0 0 1 1.065.9 1.039 1.039 0 0 1-1.03 1.173h-.077a.962.962 0 0 0-.962.962v.153a.962.962 0 0 0 .962.962 3.165 3.165 0 0 0 3.189-2.994 3.118 3.118 0 0 0-3.112-3.23h-.851l.289-1.733a2.888 2.888 0 0 1 2.852-2.42 2.975 2.975 0 0 1 2.9 2.978V21.8h-6.837l-.555-.555a3.116 3.116 0 0 1-.913-2.2ZM27.237 35.3l-1.716 2.86-2.426-.971 3.149-1.89Zm7.025-15.574a2.078 2.078 0 0 1-2.076 2.074h-.2a11.4 11.4 0 0 0 .2-2.076V17.65a2.078 2.078 0 0 1 2.076 2.076M9.344 21.8a2.076 2.076 0 1 1 0-4.153v2.076a11.419 11.419 0 0 0 .2 2.076Zm0-8.274v2.044a4.112 4.112 0 0 0-1.456.277l-.321-1.28a10.056 10.056 0 0 1 9.756-12.491H29.49a4.737 4.737 0 0 1 4.77 4.53 4.678 4.678 0 0 1-4.67 4.814h-.983a2.628 2.628 0 0 1-2.635-2.29 2.578 2.578 0 0 1 1.749-2.74.674.674 0 0 0 .426-.852l-.23-.692a.673.673 0 0 0-.853-.426 4.648 4.648 0 0 0-3.184 4.419c0 .134.028.261.04.391a20.46 20.46 0 0 1-5.585-1.353l-.4-.162a6.263 6.263 0 0 0-8.587 5.814m2.076 6.2v-6.2a4.187 4.187 0 0 1 5.738-3.887l.4.162a22.56 22.56 0 0 0 7.073 1.559 4.651 4.651 0 0 0 3.9 2.134h1.055c.176 0 .347-.014.519-.026v6.255a9.344 9.344 0 0 1-18.688 0m9.344 11.421a11.394 11.394 0 0 0 3.406-.519l.624 3.12-4.03 2.418-4.029-2.418.624-3.12a11.394 11.394 0 0 0 3.405.519m-5.381 4.211 3.052 1.831-2.436.977-1.623-2.606Zm-2.925 24.86H35.3v2.076H12.459ZM35.3 58.142H12.459V43.606H35.3Zm13.577-20.8a12.271 12.271 0 0 1-9.232 4.188H12.459a2.077 2.077 0 0 0-2.077 2.077v18.688H6.229a4.153 4.153 0 0 1-4.153-4.153v-13.35a8.258 8.258 0 0 1 6.64-8.1l3.486-.7 2.446 3.936a1.137 1.137 0 0 0 1.388.455l4.637-1.855.092.055.092-.055 4.636 1.854a1.137 1.137 0 0 0 1.4-.471l2.765-4.611h9.55a6.525 6.525 0 0 0 2.9-.683 6.439 6.439 0 0 0 3.579-5.791V23.88h6.229v5.383a12.264 12.264 0 0 1-3.035 8.079"/></g></svg>


