<svg xmlns="http://www.w3.org/2000/svg" width="129.179" height="34.464"><g data-name="Group 42695"><path data-name="Fill 4" d="M20.471 16.028a6.863 6.863 0 0 1 3.257-5.748A7.06 7.06 0 0 0 18.2 7.29c-2.32-.245-4.577 1.394-5.758 1.394-1.2 0-3.034-1.362-4.992-1.33a7.34 7.34 0 0 0-6.181 3.778C-1.4 15.765.588 22.574 3.153 26.321c1.288 1.831 2.778 3.885 4.747 3.81 1.916-.075 2.64-1.224 4.95-1.224s2.97 1.224 4.971 1.181c2.065-.032 3.353-1.841 4.6-3.693a15.013 15.013 0 0 0 2.1-4.279 6.638 6.638 0 0 1-4.045-6.088"/><path data-name="Fill 6" d="M16.692 4.832A6.753 6.753 0 0 0 18.236 0a6.847 6.847 0 0 0-4.439 2.3 6.475 6.475 0 0 0-1.586 4.65 5.673 5.673 0 0 0 4.481-2.118"/><g data-name="Group 38479"><path data-name="Fill 8" d="M37.618 29.865H35.01l5.056-15.721h3.129l5.077 15.719H45.59l-1.469-4.619H39.01l-1.392 4.62Zm3.892-13.614c-.138.582-.38 1.567-.746 2.959l-1.309 4.1h4.23l-1.331-4.1c-.155-.479-.442-1.557-.788-2.959Z"/><path data-name="Fill 10" d="M52.966 34.463h-2.518V22.255c0-1.217-.036-2.436-.1-3.725h2.214l.139 1.8h.042a4.215 4.215 0 0 1 3.821-2.034 4.228 4.228 0 0 1 3.342 1.586 6.135 6.135 0 0 1 1.363 4.183 6.416 6.416 0 0 1-1.575 4.566 4.606 4.606 0 0 1-3.492 1.49 3.475 3.475 0 0 1-3.236-1.607v5.949Zm2.8-14.156a2.686 2.686 0 0 0-1.692.617 2.861 2.861 0 0 0-.99 1.618 3.415 3.415 0 0 0-.117.766v1.895a3.046 3.046 0 0 0 .756 2.087 2.517 2.517 0 0 0 1.969.851 2.61 2.61 0 0 0 2.215-1.1 4.783 4.783 0 0 0 .8-2.9 4.594 4.594 0 0 0-.749-2.716 2.586 2.586 0 0 0-2.192-1.117Z"/><path data-name="Fill 12" d="M65.995 34.463h-2.518V22.255c0-1.217-.036-2.436-.1-3.725h2.214l.139 1.8h.042a4.215 4.215 0 0 1 3.821-2.034 4.228 4.228 0 0 1 3.342 1.586 6.135 6.135 0 0 1 1.363 4.183 6.416 6.416 0 0 1-1.575 4.566 4.606 4.606 0 0 1-3.492 1.49 3.475 3.475 0 0 1-3.236-1.607v5.949Zm2.8-14.156a2.686 2.686 0 0 0-1.692.617 2.894 2.894 0 0 0-.99 1.618 3.416 3.416 0 0 0-.117.766v1.895a3.046 3.046 0 0 0 .756 2.087 2.517 2.517 0 0 0 1.969.851 2.584 2.584 0 0 0 2.215-1.1 4.721 4.721 0 0 0 .8-2.9 4.594 4.594 0 0 0-.749-2.716 2.586 2.586 0 0 0-2.192-1.117Z"/><path data-name="Fill 14" d="M88.88 25.459a4.209 4.209 0 0 1-1.394 3.268 6.189 6.189 0 0 1-4.279 1.373 7.488 7.488 0 0 1-4.066-.979l.585-2.1a7.07 7.07 0 0 0 3.64.979 3.428 3.428 0 0 0 2.214-.639 2.086 2.086 0 0 0 .8-1.714 2.217 2.217 0 0 0-.649-1.607 6.078 6.078 0 0 0-2.173-1.21c-2.778-1.033-4.151-2.533-4.151-4.503a3.993 3.993 0 0 1 1.458-3.171 5.784 5.784 0 0 1 3.864-1.235 7.6 7.6 0 0 1 3.566.745l-.639 2.044a6.283 6.283 0 0 0-3.023-.724 3.136 3.136 0 0 0-2.086.649 1.889 1.889 0 0 0-.628 1.426 1.911 1.911 0 0 0 .722 1.533 8.121 8.121 0 0 0 2.29 1.213 7.673 7.673 0 0 1 2.981 1.914 3.982 3.982 0 0 1 .969 2.735"/><path data-name="Fill 16" d="M97.228 20.425h-2.781v5.5c0 1.394.49 2.1 1.469 2.1a4.672 4.672 0 0 0 1.118-.115l.075 1.916a5.842 5.842 0 0 1-1.959.277 3.014 3.014 0 0 1-2.331-.915 4.443 4.443 0 0 1-.841-3.058v-5.72h-1.65v-1.879h1.65v-2.076l2.469-.745v2.821h2.781v1.894"/><path data-name="Fill 18" d="M104.079 30.12a5.121 5.121 0 0 1-3.981-1.65 6.013 6.013 0 0 1-1.479-4.171 6.205 6.205 0 0 1 1.522-4.311 5.332 5.332 0 0 1 4.12-1.682 5.194 5.194 0 0 1 4.012 1.66 5.937 5.937 0 0 1 1.446 4.14 6.256 6.256 0 0 1-1.49 4.289 5.358 5.358 0 0 1-4.15 1.725Zm.1-9.984a2.518 2.518 0 0 0-2.31 1.352 5.069 5.069 0 0 0-.671 2.725 5.068 5.068 0 0 0 .671 2.672 2.585 2.585 0 0 0 4.55-.021 5.122 5.122 0 0 0 .692-2.7 5.049 5.049 0 0 0-.671-2.671 2.508 2.508 0 0 0-2.265-1.357Z"/><path data-name="Fill 20" d="M117.917 20.743a4.667 4.667 0 0 0-.8-.064 2.377 2.377 0 0 0-2.054 1 3.8 3.8 0 0 0-.624 2.236v5.95h-2.525v-7.77c0-1.309-.022-2.5-.075-3.566h2.193l.1 2.171h.075a3.864 3.864 0 0 1 1.251-1.798 3.064 3.064 0 0 1 1.82-.607 5.3 5.3 0 0 1 .628.043l.011 2.405"/><path data-name="Fill 22" d="M124.74 30.064a5.52 5.52 0 0 1-4.141-1.55 5.75 5.75 0 0 1-1.5-4.162 6.524 6.524 0 0 1 1.405-4.268 4.844 4.844 0 0 1 3.96-1.82 4.211 4.211 0 0 1 3.7 1.82 6.123 6.123 0 0 1 1.014 3.58 5.776 5.776 0 0 1-.095 1.139h-7.557a3.292 3.292 0 0 0 1.096 2.561 3.8 3.8 0 0 0 2.469.788 8.5 8.5 0 0 0 3.055-.532l.395 1.744a9.514 9.514 0 0 1-3.801.7Zm-.458-10.044a2.4 2.4 0 0 0-2 1.022 3.783 3.783 0 0 0-.746 1.958l5.237.011a3.4 3.4 0 0 0-.489-1.937 2.2 2.2 0 0 0-2.002-1.054Z"/></g><path data-name="Fill 24" d="M37.225 8.526h-1.277l2.48-7.728h1.533l2.511 7.726h-1.324l-.719-2.266h-2.512l-.692 2.267Zm1.916-6.706-.09.362c-.071.292-.16.654-.283 1.1l-.638 2.016h2.075l-.649-2.02c-.058-.183-.168-.6-.335-1.238l-.058-.221Z"/><path data-name="Fill 26" d="M48.688 2.948 46.58 8.525h-1.2l-2.046-5.577h1.331l.947 2.948c.16.49.3.958.4 1.4h.032c.1-.4.234-.873.4-1.4l.945-2.948h1.3"/><path data-name="Fill 28" d="M51.422 8.652a1.617 1.617 0 0 1-1.7-1.639c0-1.345 1.157-2.085 3.257-2.085v-.107c0-.728-.39-1.1-1.16-1.1a2.6 2.6 0 0 0-1.459.415l-.255-.805a3.568 3.568 0 0 1 1.917-.479c1.454 0 2.192.777 2.192 2.309v2.055a7.33 7.33 0 0 0 .085 1.33l-1.118-.021-.1-.639h-.028a1.924 1.924 0 0 1-1.631.766Zm1.589-2.9c-1.409 0-2.065.358-2.065 1.128a.792.792 0 0 0 .852.873 1.179 1.179 0 0 0 1.213-1.144Z"/><path data-name="Fill 30" d="M57.608 8.515h-1.235V2.949h1.235v5.565Zm-.639-6.482a.723.723 0 0 1-.734-.745.729.729 0 0 1 .756-.734.772.772 0 0 1 .56.226.7.7 0 0 1 .195.508.721.721 0 0 1-.777.745Z"/><path data-name="Fill 32" d="M59.812 8.515h1.235V.394h-1.235Z"/><path data-name="Fill 33" d="M64.544 8.653a1.617 1.617 0 0 1-1.7-1.638c0-1.346 1.157-2.087 3.257-2.087v-.106c0-.727-.39-1.1-1.16-1.1a2.59 2.59 0 0 0-1.458.42l-.256-.821a3.569 3.569 0 0 1 1.917-.479c1.454 0 2.192.777 2.192 2.309v2.055a8.706 8.706 0 0 0 .074 1.33h-1.107v-.01l-.1-.639h-.028a1.924 1.924 0 0 1-1.631.766Zm1.589-2.905c-1.409 0-2.065.358-2.065 1.128a.793.793 0 0 0 .852.873 1.179 1.179 0 0 0 1.213-1.139Z"/><path data-name="Fill 34" d="M72.361 8.654a1.9 1.9 0 0 1-1.756-.99h-.022l-.074.862h-1.054c.029-.4.042-.877.042-1.5V.394h1.246v3.374h.022a1.907 1.907 0 0 1 1.778-.926c1.341 0 2.278 1.16 2.278 2.82-.001 1.732-1.035 2.992-2.46 2.992Zm-.256-4.843a1.426 1.426 0 0 0-1.362 1.483v.979a1.354 1.354 0 0 0 1.341 1.391c.913 0 1.48-.751 1.48-1.959 0-1.133-.586-1.894-1.459-1.894Z"/><path data-name="Fill 35" d="M76.651 8.515h1.235V.394h-1.235Z"/><path data-name="Fill 36" d="M82.493 8.62a2.592 2.592 0 0 1-2.778-2.809 2.709 2.709 0 0 1 2.64-2.991 2.343 2.343 0 0 1 2.32 2.65 2.221 2.221 0 0 1-.053.564h-3.715a1.6 1.6 0 0 0 1.756 1.65 4.206 4.206 0 0 0 1.5-.266l.192.862a4.5 4.5 0 0 1-1.862.34Zm-.223-4.938a1.461 1.461 0 0 0-1.355 1.469h2.578a1.66 1.66 0 0 0-.329-1.074 1.122 1.122 0 0 0-.894-.395Z"/><path data-name="Fill 37" d="M92.127 8.653a2.657 2.657 0 0 1-2.682-2.863 2.714 2.714 0 0 1 2.778-2.948 2.623 2.623 0 0 1 2.682 2.852 3.059 3.059 0 0 1-.76 2.131 2.668 2.668 0 0 1-2.018.828Zm.054-4.911c-.879 0-1.469.8-1.469 2 0 1.166.6 1.98 1.458 1.98s1.459-.846 1.459-2.012-.607-1.968-1.448-1.968Z"/><path data-name="Fill 38" d="M101.558 8.525h-1.235v-3.2c0-.99-.383-1.479-1.128-1.479a1.28 1.28 0 0 0-1.235 1.359v3.31h-1.234v-3.97c0-.49-.011-1.022-.043-1.597h1.086l.053.862h.032a2 2 0 0 1 1.767-.979c1.171 0 1.937.894 1.937 2.352v3.342"/><path data-name="Fill 39" d="M109.659 3.885h-1.362v2.7c0 .692.245 1.032.724 1.032a2.709 2.709 0 0 0 .553-.052l.032.937a2.683 2.683 0 0 1-.958.138c-.979.003-1.554-.54-1.554-1.945v-2.81h-.809v-.926h.809V1.938l1.213-.373v1.384h1.363v.936"/><path data-name="Fill 40" d="M116.216 8.526h-1.232V5.343c0-1-.383-1.5-1.128-1.5a1.213 1.213 0 0 0-1.235 1.32v3.352h-1.237V.394h1.235v3.342h.021a1.872 1.872 0 0 1 1.671-.9c1.181 0 1.905.915 1.905 2.374v3.316"/><path data-name="Fill 41" d="M120.408 8.62a2.592 2.592 0 0 1-2.778-2.809 2.709 2.709 0 0 1 2.64-2.991 2.343 2.343 0 0 1 2.32 2.65 2.221 2.221 0 0 1-.053.564h-3.715a1.6 1.6 0 0 0 1.756 1.65 4.206 4.206 0 0 0 1.5-.266l.192.862a4.5 4.5 0 0 1-1.862.34Zm-.223-4.938a1.463 1.463 0 0 0-1.355 1.469h2.578a1.66 1.66 0 0 0-.329-1.074 1.122 1.122 0 0 0-.894-.395Z"/></g></svg>