<svg xmlns="http://www.w3.org/2000/svg" width="15.593" height="19.787"><g data-name="Group 41853"><g data-name="Group 41850"><g data-name="Group 41852"><path data-name="Path 100720" d="m7.797 15.539-1.3 1.092c-1.051.885-2.1 1.775-3.153 2.654a2.012 2.012 0 0 1-3.306-1.141 2.286 2.286 0 0 1-.036-.456V3.618A3.532 3.532 0 0 1 3.063.031a3.588 3.588 0 0 1 .56-.03h8.341a3.53 3.53 0 0 1 3.588 3.033 3.669 3.669 0 0 1 .039.6v14.029a2.006 2.006 0 0 1-1.66 2.087 1.981 1.981 0 0 1-1.7-.476q-1.59-1.343-3.183-2.684l-1.251-1.053m-6.465-4.968v7.087a.708.708 0 0 0 .406.731.72.72 0 0 0 .8-.164q2.36-2 4.726-3.985a.7.7 0 0 1 1.055 0q2.316 1.952 4.629 3.906c.276.234.554.411.919.242s.4-.493.4-.845q-.006-6.16 0-12.319V3.638a2.209 2.209 0 0 0-2.313-2.3h-8.3a2.724 2.724 0 0 0-.678.077 2.206 2.206 0 0 0-1.638 2.236v6.92" fill="#891538"/></g></g><path data-name="Path 100721" d="M7.796 4.295a.4.4 0 0 0-.4.4v2.39H5.01a.4.4 0 0 0 0 .8H7.4v2.39a.4.4 0 0 0 .8 0V7.879h2.39a.4.4 0 0 0 0-.8H8.194V4.695a.4.4 0 0 0-.398-.4Z" fill="none" stroke="#891538"/></g></svg>