<svg xmlns="http://www.w3.org/2000/svg" width="144.92" height="33.379"><defs><clipPath id="a"><path data-name="Clip 12" d="M0 1.64v25.887a2.317 2.317 0 0 0 .586 1.64l.117.117 14.526-14.525v-.235L.469 0A2.289 2.289 0 0 0 0 1.64" fill="none"/></clipPath><clipPath id="b"><path data-name="Clip 15" d="M0 4.8v.351l4.8 4.8 5.86-3.157c1.64-.937 1.64-2.46 0-3.4L4.92.117 4.8 0Z" fill="none"/></clipPath><clipPath id="c"><path data-name="Clip 18" d="M0 14.642c.586.585 1.406.585 2.46.117l17.1-9.84L14.643 0Z" fill="none"/></clipPath><clipPath id="e"><path data-name="Clip 21" d="m0 .5 14.643 14.527 4.92-4.92L2.46.385A2.67 2.67 0 0 0 1.178 0 1.619 1.619 0 0 0 0 .5" fill="none"/></clipPath><linearGradient id="d" x1=".863" y1=".177" x2="-.5" y2="1.943" gradientUnits="objectBoundingBox"><stop offset="0" stop-color="#ff3a44"/><stop offset="1" stop-color="#c31162"/></linearGradient></defs><g data-name="Group 42694"><g data-name="Group 42683"><g data-name="Group 42677"><g data-name="Group 42676"><g data-name="Group 42675"><path data-name="Fill 4" d="M79.343 7.636a3.6 3.6 0 0 1-2.7-1.1 3.6 3.6 0 0 1-1.1-2.7 3.6 3.6 0 0 1 1.1-2.7 3.853 3.853 0 0 1 5.4 0 3.6 3.6 0 0 1 1.1 2.7 3.6 3.6 0 0 1-1.1 2.7 3.6 3.6 0 0 1-2.7 1.1Zm0-6.749a2.442 2.442 0 0 0-1.964.859 2.972 2.972 0 0 0-.855 2.081 2.522 2.522 0 0 0 .859 2.086 2.9 2.9 0 0 0 1.964.859 2.442 2.442 0 0 0 1.964-.859 2.971 2.971 0 0 0 .855-2.086 2.523 2.523 0 0 0-.859-2.087 2.907 2.907 0 0 0-1.964-.854ZM46.324 7.636a3.6 3.6 0 0 1-2.7-1.109 3.6 3.6 0 0 1-1.1-2.7 3.6 3.6 0 0 1 1.1-2.7 3.6 3.6 0 0 1 2.7-1.1 3.288 3.288 0 0 1 1.478.368 2.632 2.632 0 0 1 1.1.859l-.614.613a2.291 2.291 0 0 0-1.964-.858 2.442 2.442 0 0 0-1.964.859 2.522 2.522 0 0 0-.854 2.086 2.523 2.523 0 0 0 .859 2.087 3.213 3.213 0 0 0 1.959.858 2.681 2.681 0 0 0 2.086-.859 2.043 2.043 0 0 0 .614-1.472h-2.7v-.982h3.564v.491a3.333 3.333 0 0 1-.864 2.45 3.6 3.6 0 0 1-2.7 1.109Zm39.028-.121h-.859V.15h1.1l3.559 5.768V.15h.982v7.363h-.982l-3.8-6.014v6.015Zm-15.1 0h-.859V1.009h-2.077V.15h5.032v.859h-2.087v6.5Zm-4.05 0h-.978V.15h.982v7.363Zm-6.627 0h-.982V1.009h-2.078V.15h5.155v.859h-2.086v6.5Zm-4.05 0h-4.3V.15h4.3v.859h-3.301v2.332h3.068V4.2h-3.068v2.327h3.31v.981Z"/><path data-name="Stroke 6" d="M79.343 7.636a3.6 3.6 0 0 1-2.7-1.1 3.6 3.6 0 0 1-1.1-2.7 3.6 3.6 0 0 1 1.1-2.7 3.853 3.853 0 0 1 5.4 0 3.6 3.6 0 0 1 1.1 2.7 3.6 3.6 0 0 1-1.1 2.7 3.6 3.6 0 0 1-2.7 1.1Zm0-6.749a2.442 2.442 0 0 0-1.964.859 2.972 2.972 0 0 0-.855 2.081 2.522 2.522 0 0 0 .859 2.086 2.9 2.9 0 0 0 1.964.859 2.442 2.442 0 0 0 1.964-.859 2.971 2.971 0 0 0 .855-2.086 2.523 2.523 0 0 0-.859-2.087 2.907 2.907 0 0 0-1.964-.854ZM46.324 7.636a3.6 3.6 0 0 1-2.7-1.109 3.6 3.6 0 0 1-1.1-2.7 3.6 3.6 0 0 1 1.1-2.7 3.6 3.6 0 0 1 2.7-1.1 3.288 3.288 0 0 1 1.478.368 2.632 2.632 0 0 1 1.1.859l-.614.613a2.291 2.291 0 0 0-1.964-.858 2.442 2.442 0 0 0-1.964.859 2.522 2.522 0 0 0-.854 2.086 2.523 2.523 0 0 0 .859 2.087 3.213 3.213 0 0 0 1.959.858 2.681 2.681 0 0 0 2.086-.859 2.043 2.043 0 0 0 .614-1.472h-2.7v-.982h3.564v.491a3.333 3.333 0 0 1-.864 2.45 3.6 3.6 0 0 1-2.7 1.109Zm39.028-.121h-.859V.15h1.1l3.559 5.768V.15h.982v7.363h-.982l-3.8-6.014v6.015Zm-15.1 0h-.859V1.009h-2.077V.15h5.032v.859h-2.087v6.5Zm-4.05 0h-.978V.15h.982v7.363Zm-6.627 0h-.982V1.009h-2.078V.15h5.155v.859h-2.086v6.5Zm-4.05 0h-4.3V.15h4.3v.859h-3.301v2.332h3.068V4.2h-3.068v2.327h3.31v.981Z" fill="none" stroke="#000" stroke-miterlimit="10" stroke-width=".054"/></g><path data-name="Fill 8" d="M86.22 33.378a5.059 5.059 0 0 1-4.617-3.093l1.944-.866a2.691 2.691 0 0 0 2.552 1.856c1.751 0 2.8-1.156 2.8-3.093v-.743h-.122a3.491 3.491 0 0 1-2.674 1.237 4.871 4.871 0 0 1-3.5-1.484 5.253 5.253 0 0 1-1.489-3.712 5.407 5.407 0 0 1 1.534-3.773 4.873 4.873 0 0 1 3.448-1.546 3.976 3.976 0 0 1 2.8 1.237v-.866h2.188v9.4a5.662 5.662 0 0 1-1.428 4.16 4.72 4.72 0 0 1-3.436 1.286Zm0-13.115a3.045 3.045 0 0 0-2.917 3.217 3.045 3.045 0 0 0 2.917 3.217 2.961 2.961 0 0 0 2.8-3.217 2.961 2.961 0 0 0-2.8-3.217Zm52.5 12.867h-2.307l2.309-5.2-4.011-9.4h2.43l2.674 6.681h.122l2.552-6.681h2.43l-6.2 14.6Zm-37.552-4.206a4.976 4.976 0 0 1-3.646-1.547 5.434 5.434 0 0 1-1.458-3.774 5.555 5.555 0 0 1 1.428-3.866 4.682 4.682 0 0 1 3.434-1.454 4.743 4.743 0 0 1 4.377 3.341l.243.619-6.927 2.969a2.627 2.627 0 0 0 2.552 1.608 2.919 2.919 0 0 0 2.552-1.485l1.7 1.237a4.948 4.948 0 0 1-4.255 2.352Zm-.243-8.661a2.976 2.976 0 0 0-2.674 3.093l4.618-1.98a2.141 2.141 0 0 0-1.944-1.113Zm-26.008 8.661a5.154 5.154 0 0 1-3.707-1.547 5.343 5.343 0 0 1-1.519-3.774 5.158 5.158 0 0 1 5.226-5.32 5.225 5.225 0 0 1 3.707 1.454 5.281 5.281 0 0 1 1.519 3.866 5.158 5.158 0 0 1-5.226 5.321Zm0-8.661a3.045 3.045 0 0 0-2.914 3.217 2.931 2.931 0 1 0 5.834 0 2.976 2.976 0 0 0-2.92-3.217Zm-11.3 8.661a5.154 5.154 0 0 1-3.714-1.547 5.343 5.343 0 0 1-1.519-3.774 5.158 5.158 0 0 1 5.226-5.32 5.225 5.225 0 0 1 3.707 1.454 5.281 5.281 0 0 1 1.519 3.866 5.158 5.158 0 0 1-5.222 5.321Zm0-8.661A3.045 3.045 0 0 0 60.7 23.48a3.045 3.045 0 0 0 2.917 3.217 3.045 3.045 0 0 0 2.917-3.217 2.976 2.976 0 0 0-2.92-3.217ZM50.246 28.8a8.264 8.264 0 0 1-8.143-8.165 8.264 8.264 0 0 1 8.143-8.166 7.669 7.669 0 0 1 5.469 2.227l-1.58 1.609a5.912 5.912 0 0 0-4.011-1.609 5.766 5.766 0 0 0-5.712 5.939 5.7 5.7 0 0 0 5.712 5.934 5.338 5.338 0 0 0 4.011-1.6 4.764 4.764 0 0 0 1.215-2.85h-5.226v-2.227h7.535a4.738 4.738 0 0 1 .122 1.361 7.572 7.572 0 0 1-1.945 5.2 6.953 6.953 0 0 1-5.59 2.347Zm79.357-.124a4.044 4.044 0 0 1-2.613-.943 3.283 3.283 0 0 1-1.155-2.52 3.07 3.07 0 0 1 1.368-2.568 5.263 5.263 0 0 1 3.008-.9 4.732 4.732 0 0 1 2.309.618v-.12a2.279 2.279 0 0 0-2.43-1.98 2.117 2.117 0 0 0-2.067 1.113l-2.066-.866a4.1 4.1 0 0 1 4.011-2.35 4.976 4.976 0 0 1 3.3 1.144 4.63 4.63 0 0 1 1.565 3.186v5.939h-2.187v-1.237h-.122a3.405 3.405 0 0 1-2.921 1.484Zm.729-4.948c-1.175 0-2.43.422-2.43 1.608 0 1 1.09 1.361 1.823 1.361a2.844 2.844 0 0 0 2.678-2.475l-.18-.074a4.318 4.318 0 0 0-1.887-.42Zm-5.955 4.7h-2.305V12.969h2.309v15.459Zm-11.667 0h-2.307V12.969h5.469a5.2 5.2 0 0 1 3.448 1.3 4.675 4.675 0 0 1 1.537 3.52 4.675 4.675 0 0 1-1.534 3.526 5.2 5.2 0 0 1-3.448 1.3h-3.16v5.814Zm0-13.362v5.32h3.281a2.8 2.8 0 0 0 2.678-2.717 2.676 2.676 0 0 0-.7-1.717 2.615 2.615 0 0 0-1.974-.883ZM94.848 28.429H92.54v-15.46h2.309v15.459Z"/><g data-name="Group 38481"><g data-name="Group 13"><path data-name="Clip 12" d="M0 3.679v25.887a2.317 2.317 0 0 0 .586 1.64l.117.117 14.526-14.525v-.235L.469 2.039A2.289 2.289 0 0 0 0 3.679" fill="none"/><g data-name="Group 13" clip-path="url(#a)" transform="translate(0 2.039)"><path data-name="Fill 11" d="M0 1.64v25.887a2.317 2.317 0 0 0 .586 1.64l.117.117 14.526-14.525v-.235L.469 0A2.289 2.289 0 0 0 0 1.64" fill="#32bbff"/></g></g><g data-name="Group 16"><path data-name="Clip 15" d="M15.111 16.562v.351l4.8 4.8 5.86-3.157c1.64-.937 1.64-2.46 0-3.4l-5.74-3.277-.12-.117Z" fill="none"/><g data-name="Group 16" clip-path="url(#b)" transform="translate(15.111 11.762)"><path data-name="Fill 14" d="M0 4.8v.351l4.8 4.8 5.86-3.157c1.64-.937 1.64-2.46 0-3.4L4.92.117 4.8 0Z" fill="#ffd500"/></g></g><g data-name="Group 19"><path data-name="Clip 18" d="M.469 31.324c.586.585 1.406.585 2.46.117l17.1-9.84-4.917-4.919Z" fill="none"/><g data-name="Group 19" clip-path="url(#c)" transform="translate(.469 16.682)"><path data-name="Fill 17" d="M0 14.642c.586.585 1.406.585 2.46.117l17.1-9.84L14.643 0Z" fill="url(#d)"/></g></g><g data-name="Group 22"><path data-name="Clip 21" d="m.469 2.154 14.643 14.527 4.92-4.92L2.929 2.039a2.67 2.67 0 0 0-1.282-.385 1.619 1.619 0 0 0-1.178.5" fill="none"/><g data-name="Group 22" clip-path="url(#e)" transform="translate(.469 1.654)"><path data-name="Fill 20" d="m0 .5 14.643 14.527 4.92-4.92L2.46.385A2.67 2.67 0 0 0 1.178 0 1.619 1.619 0 0 0 0 .5" fill="#29cc5e"/></g></g><g data-name="Group 29"><path data-name="Fill 23" d="M19.915 21.484 2.929 31.089a1.916 1.916 0 0 1-2.343 0l-.117.117.117.117a1.916 1.916 0 0 0 2.343 0Z"/><path data-name="Fill 25" d="M.48 31.089H.469a1.837 1.837 0 0 1-.448-1.164 2.285 2.285 0 0 0 .457 1.163Zm19.551-9.488-.117-.117 5.857-3.278c.81-.542 1.16-.99 1.171-1.5a1.967 1.967 0 0 1-1.171 1.615l-5.74 3.28Z"/><path data-name="Fill 27" d="m2.929 2.156 22.843 13c.7.469 1.171.937 1.171 1.523a1.947 1.947 0 0 0-1.171-1.64l-22.843-13C1.289 1.102 0 1.805 0 3.679v.117c0-1.757 1.289-2.577 2.929-1.64" fill="#fff"/></g></g></g></g></g></g></svg>